HIERARCHY
ROOT Hips
{
	OFFSET 0.000000 0.000000 0.000000
	CHANNELS 6 Xposition Yposition Zposition Xrotation Yrotation Zrotation
	JOINT LeftUpLeg_virtual
	{
		OFFSET 0.000000 0.000000 0.000000
		CHANNELS 3 Xrotation Yrotation Zrotation
		JOINT LeftUpLeg
		{
			OFFSET 10.205400 -3.823500 0.155100
			CHANNELS 3 Xrotation Yrotation Zrotation
			JOINT LeftLeg
			{
				OFFSET 0.708757 -12.982077 0.567790
				CHANNELS 3 Xrotation Yrotation Zrotation
				JOINT LeftFoot
				{
					OFFSET -0.708756 -10.717838 -2.184338
					CHANNELS 3 Xrotation Yrotation Zrotation
					JOINT LeftToeBase
					{
						OFFSET 0.108149 -7.191104 7.560241
						CHANNELS 3 Xrotation Yrotation Zrotation
						JOINT LeftToe_End
						{
							OFFSET 0.070230 0.081724 4.490308
							CHANNELS 3 Xrotation Yrotation Zrotation
							End Site
							{
								OFFSET 0 0 0
							}
						}
					}
				}
			}
		}
	}
	JOINT RightUpLeg_virtual
	{
		OFFSET 0.000000 0.000000 0.000000
		CHANNELS 3 Xrotation Yrotation Zrotation
		JOINT RightUpLeg
		{
			OFFSET -10.205400 -3.823500 0.005500
			CHANNELS 3 Xrotation Yrotation Zrotation
			JOINT RightLeg
			{
				OFFSET -0.708756 -12.982134 0.610632
				CHANNELS 3 Xrotation Yrotation Zrotation
				JOINT RightFoot
				{
					OFFSET 0.708754 -10.717769 -1.945823
					CHANNELS 3 Xrotation Yrotation Zrotation
					JOINT RightToeBase
					{
						OFFSET -0.108140 -7.191069 7.372968
						CHANNELS 3 Xrotation Yrotation Zrotation
						JOINT RightToe_End
						{
							OFFSET -0.070227 0.081735 4.479403
							CHANNELS 3 Xrotation Yrotation Zrotation
							End Site
							{
								OFFSET 0 0 0
							}
						}
					}
				}
			}
		}
	}
	JOINT Spine_virtual
	{
		OFFSET 0.000000 0.000000 0.000000
		CHANNELS 3 Xrotation Yrotation Zrotation
		JOINT Spine
		{
			OFFSET 0.000000 6.876099 0.125700
			CHANNELS 3 Xrotation Yrotation Zrotation
			JOINT Spine1
			{
				OFFSET 0.000000 5.730043 0.104720
				CHANNELS 3 Xrotation Yrotation Zrotation
				JOINT Spine1_split
				{
					OFFSET 0.000000 5.730043 0.104720
					CHANNELS 3 Xrotation Yrotation Zrotation
					JOINT Spine2
					{
						OFFSET 0.000000 5.730043 0.104720
						CHANNELS 3 Xrotation Yrotation Zrotation
						JOINT Neck_virtual
						{
							OFFSET 0.000000 0.000000 0.000000
							CHANNELS 3 Xrotation Yrotation Zrotation
							JOINT Neck
							{
								OFFSET 0.000000 10.314075 0.188496
								CHANNELS 3 Xrotation Yrotation Zrotation
								JOINT Head
								{
									OFFSET 0.000000 7.643700 -2.377400
									CHANNELS 3 Xrotation Yrotation Zrotation
									JOINT HeadTop_End
									{
										OFFSET 0.000000 43.788605 -13.619600
										CHANNELS 3 Xrotation Yrotation Zrotation
										End Site
										{
											OFFSET 0 0 0
										}
									}
								}
							}
						}
						JOINT LeftShoulder_virtual
						{
							OFFSET 0.000000 0.000000 0.000000
							CHANNELS 3 Xrotation Yrotation Zrotation
							JOINT LeftShoulder
							{
								OFFSET 2.196100 4.412489 0.087492
								CHANNELS 3 Xrotation Yrotation Zrotation
								JOINT LeftShoulder_split
								{
									OFFSET 2.196100 4.412489 0.087492
									CHANNELS 3 Xrotation Yrotation Zrotation
									JOINT LeftArm
									{
										OFFSET 8.771219 -2.981674 -0.026999
										CHANNELS 3 Xrotation Yrotation Zrotation
										JOINT LeftForeArm
										{
											OFFSET 8.512804 0.000000 -0.000000
											CHANNELS 3 Xrotation Yrotation Zrotation
											JOINT LeftHand
											{
												OFFSET 18.484802 0.000000 -0.000000
												CHANNELS 3 Xrotation Yrotation Zrotation
												End Site
												{
													OFFSET 0 0 0
												}
											}
										}
									}
								}
							}
						}
						JOINT RightShoulder_virtual
						{
							OFFSET 0.000000 0.000000 0.000000
							CHANNELS 3 Xrotation Yrotation Zrotation
							JOINT RightShoulder
							{
								OFFSET -2.196100 4.412496 0.070690
								CHANNELS 3 Xrotation Yrotation Zrotation
								JOINT RightShoulder_split
								{
									OFFSET -2.196100 4.412496 0.070690
									CHANNELS 3 Xrotation Yrotation Zrotation
									JOINT RightArm
									{
										OFFSET -8.771282 -2.981682 -0.094208
										CHANNELS 3 Xrotation Yrotation Zrotation
										JOINT RightForeArm
										{
											OFFSET -8.494598 0.000000 0.000000
											CHANNELS 3 Xrotation Yrotation Zrotation
											JOINT RightHand
											{
												OFFSET -18.483803 0.000000 0.000001
												CHANNELS 3 Xrotation Yrotation Zrotation
												End Site
												{
													OFFSET 0 0 0
												}
											}
										}
									}
								}
							}
						}
					}
				}
			}
		}
	}
}
MOTION
Frames: 8
Frame Time: 0.03333333
0.074059 30.440456 18.797321 0.000000 0.000000 0.000000 9.773447 -5.847411 0.349486 -29.913804 5.362287 21.526458 44.955533 5.584915 0.603866 -23.023610 0.397774 -18.055856 0.828051 -0.140931 1.314747 0.000000 0.000000 0.000000 10.046801 -5.905186 0.641200 -36.103717 -0.202935 -10.207555 46.526839 4.311940 -3.718144 -21.393483 -13.249439 12.175555 1.881897 0.489640 -0.191945 0.000000 0.000000 0.000000 9.946232 -5.453096 0.390497 6.333122 0.003923 -0.548967 1.701896 -0.367668 0.441204 1.049203 1.501099 -0.068989 0.000000 0.000000 0.000000 1.595973 -0.815166 0.415109 12.523749 -0.426067 0.819859 -30.023234 0.765175 -4.887186 0.000000 0.000000 0.000000 1.461935 -0.710083 0.676605 5.905181 -9.337497 19.392292 -1.076261 -4.142276 -0.008926 -32.864691 -15.041118 -13.611602 178.335269 -58.130955 179.662935 0.000000 0.000000 0.000000 0.803400 -0.777182 0.585283 -0.841283 -8.201139 -16.537346 0.456222 -0.216226 1.775416 -38.403982 35.471413 31.167898 179.104308 52.312856 -179.631025 0.000000 0.000000 0.000000 
0.052139 31.021795 19.113998 0.000000 0.000000 0.000000 9.998062 -5.673468 0.483407 -27.461315 6.199356 21.090782 39.522032 5.657371 0.587842 -21.102523 -0.031640 -17.630690 1.248419 -0.051645 0.981091 0.000000 0.000000 0.000000 10.372225 -5.584104 0.689386 -33.460458 -0.671337 -10.030351 41.429892 3.995950 -3.672291 -18.986987 -13.230807 12.320660 1.528490 0.433955 -0.062470 0.000000 0.000000 0.000000 10.305747 -5.275942 0.503927 6.084076 -0.120339 -0.463094 0.848877 -0.399084 0.293317 1.157653 1.399701 0.064807 0.000000 0.000000 0.000000 0.614318 -0.845106 0.283529 12.283062 -0.356136 0.980588 -28.994020 0.733971 -4.673282 0.000000 0.000000 0.000000 0.425761 -0.759020 0.492828 5.910522 -9.317177 19.135108 -1.319502 -3.948948 -0.019076 -32.325373 -15.471254 -13.985568 178.590814 -58.302030 179.903071 0.000000 0.000000 0.000000 -0.243949 -0.794580 0.472782 -0.935275 -8.118192 -16.550426 0.694854 -0.559252 1.857977 -36.940668 36.240021 30.511958 179.027441 52.486025 -179.328720 0.000000 0.000000 0.000000 
0.032837 31.530348 19.382778 0.000000 0.000000 0.000000 10.168970 -5.442070 0.582079 -25.355020 6.928302 20.663235 34.655649 5.683868 0.499328 -19.194280 -0.622856 -17.262545 1.521099 0.051438 0.752423 0.000000 0.000000 0.000000 10.633608 -5.151559 0.701431 -31.083187 -1.025329 -9.880439 36.971906 3.639837 -3.612269 -16.716511 -13.199969 12.454061 1.318359 0.376511 0.056314 0.000000 0.000000 0.000000 10.564756 -4.960871 0.584017 5.931588 -0.229120 -0.393632 0.090673 -0.461298 0.198137 1.210809 1.305654 0.183287 0.000000 0.000000 0.000000 -0.211852 -0.900613 0.215050 11.847422 -0.295063 1.049070 -27.990195 0.754584 -4.505752 0.000000 0.000000 0.000000 -0.480856 -0.810635 0.358989 5.813907 -8.961499 18.878469 -1.457019 -3.892586 0.003754 -31.473590 -16.701177 -14.281674 178.843026 -58.684357 -179.876693 0.000000 0.000000 0.000000 -1.146587 -0.834572 0.390372 -1.070432 -8.119244 -16.448567 0.800329 -0.945438 1.888540 -35.437514 37.065155 30.065219 178.941380 52.724638 -178.991323 0.000000 0.000000 0.000000 
0.026088 31.913473 19.571875 0.000000 0.000000 0.000000 10.244510 -5.189881 0.633688 -23.785043 7.497894 20.315127 30.788946 5.692626 0.312491 -17.423790 -1.293811 -16.990866 1.608194 0.156813 0.656286 0.000000 0.000000 0.000000 10.806909 -4.683659 0.684584 -29.202767 -1.275442 -9.791570 33.447371 3.299907 -3.560971 -14.879553 -13.124547 12.534931 1.422364 0.322754 0.136359 0.000000 0.000000 0.000000 10.715101 -4.611543 0.627007 5.878538 -0.298869 -0.330148 -0.505342 -0.535614 0.160015 1.222795 1.263226 0.200181 0.000000 0.000000 0.000000 -0.820275 -0.975624 0.215784 11.346946 -0.252032 1.064834 -27.006360 0.837105 -4.416984 0.000000 0.000000 0.000000 -1.205627 -0.861164 0.297321 5.641219 -8.262492 18.660572 -1.545145 -3.863109 0.062456 -30.516626 -18.544442 -14.520371 179.108597 -58.819369 -179.618074 0.000000 0.000000 0.000000 -1.820022 -0.883789 0.347179 -1.235059 -8.216913 -16.253490 0.734758 -1.096666 1.891659 -34.145676 37.683854 29.907766 178.879253 52.887077 -178.716503 0.000000 0.000000 0.000000 
0.026417 32.158436 19.697762 0.000000 0.000000 0.000000 10.262665 -4.990022 0.652666 -22.805628 7.857581 20.085664 28.118709 5.687089 0.036234 -15.847287 -1.978246 -16.827042 1.682727 0.247732 0.655148 0.000000 0.000000 0.000000 10.896041 -4.301936 0.652679 -27.931972 -1.423256 -9.767877 31.044548 2.995208 -3.501288 -13.578581 -13.028967 12.505402 1.741126 0.273446 0.185482 0.000000 0.000000 0.000000 10.756377 -4.257088 0.644647 5.905058 -0.316382 -0.264759 -0.930661 -0.609312 0.159120 1.236475 1.282406 0.140354 0.000000 0.000000 0.000000 -1.212270 -1.052582 0.267661 10.926690 -0.202828 1.066128 -26.017350 0.967806 -4.419152 0.000000 0.000000 0.000000 -1.746977 -0.895243 0.292810 5.408711 -7.241726 18.397719 -1.453115 -4.026554 0.149491 -29.456803 -20.703893 -14.826075 179.356833 -58.360975 -179.364005 0.000000 0.000000 0.000000 -2.239689 -0.933859 0.320883 -1.400109 -8.389065 -16.027155 0.441869 -0.993176 1.981172 -33.010233 37.836775 29.997562 178.886821 52.840918 -178.590814 0.000000 0.000000 0.000000 
0.027019 32.282333 19.750679 0.000000 0.000000 0.000000 10.246803 -4.877157 0.661044 -22.412506 8.014691 19.990203 26.597388 5.732761 -0.323669 -14.596763 -2.579771 -16.625152 1.954913 0.322474 0.656689 0.000000 0.000000 0.000000 10.916709 -3.993050 0.633637 -27.206194 -1.514075 -9.810788 29.647461 2.716642 -3.425333 -12.744410 -12.934273 12.368542 2.071116 0.220497 0.202623 0.000000 0.000000 0.000000 10.724506 -3.911652 0.645674 5.976450 -0.279311 -0.195981 -1.210591 -0.671243 0.168184 1.165563 1.261626 0.035944 0.000000 0.000000 0.000000 -1.454061 -1.121518 0.328641 10.701833 -0.144882 1.068647 -24.957817 1.095611 -4.521567 0.000000 0.000000 0.000000 -2.137437 -0.912157 0.312875 5.159577 -6.044714 17.969179 -1.148688 -4.239069 0.249217 -28.139836 -22.887740 -15.322146 179.517548 -57.393082 -179.188688 0.000000 0.000000 0.000000 -2.461331 -0.978041 0.292038 -1.534650 -8.581454 -15.809683 -0.018087 -0.789500 2.042560 -31.805657 37.340812 30.280609 178.992019 52.570498 -178.669908 0.000000 0.000000 0.000000 
0.017545 32.321804 19.726734 0.000000 0.000000 0.000000 10.214600 -4.856036 0.676636 -22.463488 7.939063 19.969031 25.917199 5.831299 -0.695071 -13.718355 -3.015395 -16.347042 2.383003 0.386926 0.617075 0.000000 0.000000 0.000000 10.873540 -3.784762 0.632457 -26.963254 -1.570642 -9.888235 28.996629 2.446536 -3.340862 -12.218293 -12.874871 12.210281 2.221614 0.144042 0.205676 0.000000 0.000000 0.000000 10.664390 -3.637575 0.645951 6.051282 -0.191803 -0.108920 -1.401918 -0.710274 0.172222 1.062737 1.303029 -0.027084 0.000000 0.000000 0.000000 -1.649824 -1.178248 0.374874 10.704193 -0.073453 1.075499 -23.792699 1.144715 -4.703498 0.000000 0.000000 0.000000 -2.426548 -0.931325 0.321994 4.954247 -4.914081 17.229442 -0.696469 -4.432244 0.473877 -26.441650 -24.801131 -16.181961 179.513176 -56.449212 -179.216678 0.000000 0.000000 0.000000 -2.555749 -1.002489 0.253845 -1.619181 -8.695364 -15.656774 -0.376189 -0.539724 2.069182 -30.300881 36.251246 30.817977 179.163840 52.165799 -178.924346 0.000000 0.000000 0.000000 
0.000306 32.316795 19.637182 0.000000 0.000000 0.000000 10.181035 -4.837132 0.701608 -22.794595 7.659228 19.959321 25.819046 5.963888 -1.019598 -13.148483 -3.274078 -16.061934 2.793800 0.434983 0.541540 0.000000 0.000000 0.000000 10.764154 -3.604144 0.659880 -27.044561 -1.607169 -10.000487 28.861296 2.175895 -3.235747 -11.882313 -12.850913 12.053496 2.132582 0.051398 0.226090 0.000000 0.000000 0.000000 10.586337 -3.401708 0.657692 6.107632 -0.077954 0.000846 -1.566019 -0.731365 0.163173 0.946189 1.307932 -0.047157 0.000000 0.000000 0.000000 -1.870976 -1.218020 0.392167 10.902158 -0.001771 1.052098 -22.533761 1.047745 -4.929562 0.000000 0.000000 0.000000 -2.651995 -0.949283 0.292555 4.844308 -4.075402 16.077785 -0.286723 -4.622830 0.766772 -24.028961 -26.381986 -17.420317 179.335332 -56.200326 -179.468671 0.000000 0.000000 0.000000 -2.620578 -1.014566 0.208243 -1.625814 -8.603666 -15.616452 -0.639259 -0.399614 1.976074 -28.176301 34.810373 31.680999 179.327300 51.919133 -179.257044 0.000000 0.000000 0.000000 
